<?xml version="1.0" encoding="iso-8859-1"?>
<!-- Uploaded to: SVG Repo, www.svgrepo.com, Generator: SVG Repo Mixer Tools -->
<svg version="1.1" id="Layer_1" xmlns="http://www.w3.org/2000/svg" xmlns:xlink="http://www.w3.org/1999/xlink" 
	 viewBox="0 0 512 512" xml:space="preserve">
<path style="fill:#B0B7B6;" d="M510.073,287.465C511.338,277.152,512,266.654,512,256C512,114.616,397.384,0,256,0S0,114.616,0,256
	c0,117.795,79.565,216.991,187.88,246.82L510.073,287.465z"/>
<path style="fill:#889391;" d="M510.073,287.465l-69.308-69.308L256,114.592L71.235,218.157l61.774,61.774l-32.835,135.184
	l87.706,87.706C209.572,508.793,232.41,512,256,512C386.731,512,494.563,414.004,510.073,287.465z"/>
<polygon style="fill:#FDE59A;" points="440.765,218.157 256,33.391 215.406,224.253 358.393,415.114 411.826,415.114 
	411.826,218.157 "/>
<g>
	<polygon style="fill:#FEF2CC;" points="71.235,218.157 100.174,218.157 100.174,415.114 153.593,415.114 256,292.675 256,33.391 	
		"/>
	<polygon style="fill:#FEF2CC;" points="389.565,198.433 389.565,392.849 256,392.849 222.609,222.979 256,64.868 	"/>
</g>
<polygon style="fill:#FFFFFF;" points="256,64.868 256,392.849 122.435,392.849 122.435,198.433 "/>
<polygon style="fill:#B0B7B6;" points="255.993,237.027 239.477,270.418 358.393,259.288 358.393,237.027 "/>
<polygon style="fill:#C3C9C8;" points="255.993,237.027 153.593,237.027 153.593,259.288 255.993,270.418 "/>
<polygon style="fill:#4C6460;" points="255.993,259.288 239.477,292.679 358.393,281.549 358.393,259.288 "/>
<polygon style="fill:#616F6D;" points="255.993,259.288 153.593,259.288 153.593,281.549 255.993,292.679 "/>
<polygon style="fill:#394B48;" points="255.993,281.549 239.477,314.94 358.393,303.81 358.393,281.549 "/>
<g>
	<polygon style="fill:#4C6460;" points="255.993,281.549 153.593,281.549 153.593,303.81 255.993,314.94 	"/>
	<polygon style="fill:#4C6460;" points="255.993,303.81 239.477,337.201 358.393,326.071 358.393,303.81 	"/>
</g>
<polygon style="fill:#616F6D;" points="255.993,303.81 153.593,303.81 153.593,326.071 255.993,337.201 "/>
<polygon style="fill:#394B48;" points="255.993,326.071 239.477,359.462 358.393,348.331 358.393,326.071 "/>
<g>
	<polygon style="fill:#4C6460;" points="255.993,326.071 153.593,326.071 153.593,348.331 255.993,359.462 	"/>
	<polygon style="fill:#4C6460;" points="255.993,348.331 239.477,381.723 358.393,370.592 358.393,348.331 	"/>
</g>
<polygon style="fill:#616F6D;" points="255.993,348.331 153.593,348.331 153.593,370.592 255.993,381.723 "/>
<polygon style="fill:#394B48;" points="255.993,370.592 239.477,403.984 358.393,392.853 358.393,370.592 "/>
<g>
	<polygon style="fill:#4C6460;" points="255.993,370.592 153.593,370.592 153.593,392.853 255.993,403.984 	"/>
	<polygon style="fill:#4C6460;" points="255.993,392.853 228.257,403.984 255.993,415.114 358.393,415.114 358.393,392.853 	"/>
</g>
<rect x="153.589" y="392.849" style="fill:#616F6D;" width="102.4" height="22.261"/>
</svg>