<?xml version="1.0" encoding="iso-8859-1"?>
<!-- Uploaded to: SVG Repo, www.svgrepo.com, Generator: SVG Repo Mixer Tools -->
<svg height="800px" width="800px" version="1.1" id="Layer_1" xmlns="http://www.w3.org/2000/svg" xmlns:xlink="http://www.w3.org/1999/xlink" 
	 viewBox="0 0 512 512" xml:space="preserve">
<path style="fill:#A7A9AC;" d="M374.772,512H137.823c-9.864,0-17.86-7.997-17.86-17.86V375.665
	c0-38.681,16.524-75.683,45.337-101.516c7.199-6.458,18.232-6.008,24.887,1.012l66.778,70.456l66.159-69.812
	c6.693-7.064,17.809-7.468,24.997-0.913c28.347,25.837,44.513,61.922,44.513,100.773V494.14
	C392.632,504.003,384.635,512,374.772,512z"/>
<g>
	<path style="fill:#808285;" d="M347.925,274.892c-7.219-6.556-18.384-6.151-25.107,0.913l-66.447,69.812l-0.669-0.702V512h119.07
		c9.864,0,17.86-7.997,17.86-17.86V375.665C392.632,336.814,376.396,300.73,347.925,274.892z"/>
	<path style="fill:#808285;" d="M274.753,512V333.986c0-2.116-0.387-4.136-1.062-6.02l-16.727,17.651l-16.829-17.757
		c-0.7,1.913-1.101,3.971-1.101,6.127V512H274.753z"/>
</g>
<path style="fill:#58595B;" d="M274.753,333.986c0-2.116-0.4-4.136-1.097-6.02l-17.266,17.651l-0.688-0.702V512h19.051V333.986
	L274.753,333.986z"/>
<path style="fill:#FF9900;" d="M243.405,383.868l-79.741-84.135c-6.922-7.301-6.437-18.876,1.036-25.58
	c25.028-22.457,57.346-34.823,91.001-34.823c34.061,0,66.671,12.629,91.822,35.561c7.391,6.738,7.799,18.234,0.93,25.482
	l-79.121,83.492C262.288,391.3,250.444,391.293,243.405,383.868z"/>
<path style="fill:#FF4F19;" d="M347.524,274.892c-25.151-22.933-57.761-35.561-91.822-35.561v150.077
	c4.94,0.183,9.944-1.649,13.631-5.54l79.121-83.492C355.323,293.126,354.914,281.631,347.524,274.892z"/>
<path style="fill:#A7A9AC;" d="M126.688,180.487c-4.859-14.182-7.322-29.038-7.322-44.152C119.367,61.159,180.526,0,255.702,0
	s136.335,61.159,136.335,136.335c0,14.753-2.344,29.257-6.968,43.113c-4.2,12.583-20.23,16.366-29.603,6.943l-50.392-50.651h-97.551
	l-51.274,51.554C146.914,196.679,130.97,192.985,126.688,180.487z"/>
<path style="fill:#808285;" d="M255.702,0v135.74h49.372l50.392,50.651c9.373,9.423,25.405,5.639,29.603-6.943
	c4.623-13.856,6.968-28.36,6.968-43.113C392.037,61.159,330.878,0,255.702,0z"/>
<path style="fill:#FFDB2D;" d="M255.702,272.67c-58.319,0-110.166-37.05-129.017-92.195c-2.199-6.43-0.556-13.553,4.236-18.371
	l56.511-56.82c3.352-3.37,7.911-5.265,12.664-5.265h112.402c4.752,0,9.309,1.894,12.662,5.264l55.629,55.915
	c4.758,4.783,6.415,11.837,4.285,18.238C366.508,235.202,314.517,272.67,255.702,272.67z"/>
<path style="fill:#FF9900;" d="M380.789,161.198l-55.629-55.915c-3.352-3.37-7.91-5.264-12.662-5.264h-56.796V272.67
	c58.816,0,110.806-37.468,129.372-93.234C387.204,173.035,385.547,165.98,380.789,161.198z"/>
<path style="fill:#58595B;" d="M342.027,438.177h-17.86c-9.864,0-17.86-7.997-17.86-17.86s7.997-17.86,17.86-17.86h17.86
	c9.864,0,17.86,7.997,17.86,17.86S351.891,438.177,342.027,438.177z"/>
</svg>