<?xml version="1.0" encoding="iso-8859-1"?>
<!-- Uploaded to: SVG Repo, www.svgrepo.com, Generator: SVG Repo Mixer Tools -->
<svg height="800px" width="800px" version="1.1" id="Layer_1" xmlns="http://www.w3.org/2000/svg" xmlns:xlink="http://www.w3.org/1999/xlink" 
	 viewBox="0 0 512.005 512.005" xml:space="preserve">
<circle style="fill:#FF873D;" cx="256.003" cy="256.003" r="256.003"/>
<path style="fill:#E37936;" d="M511.799,266.33C506.533,399.52,399.52,506.483,266.33,511.799l-94.476-94.476l170.048-320.89
	L511.799,266.33z"/>
<path style="fill:#006775;" d="M174.16,94.126h163.73c2.576,0,4.663,2.088,4.663,4.663v314.471c0,2.576-2.088,4.663-4.663,4.663
	H174.16c-2.576,0-4.663-2.089-4.663-4.663V98.789C169.497,96.214,171.584,94.126,174.16,94.126z"/>
<path style="fill:#055661;" d="M341.902,96.433c0.401,0.703,0.651,1.504,0.651,2.357v314.471c0,2.558-2.107,4.663-4.663,4.663
	H174.16c-0.853,0-1.605-0.2-2.307-0.601L341.902,96.433z"/>
<path style="fill:#FFFFFF;" d="M181.331,137.803h149.387c1.994,0,3.611,1.616,3.611,3.611v229.171c0,1.994-1.616,3.611-3.611,3.611
	H181.331c-1.994,0-3.611-1.616-3.611-3.611V141.414C177.721,139.42,179.337,137.803,181.331,137.803z"/>
<path style="fill:#EBECEC;" d="M216.684,114.134h78.63c1.8,0,3.259,1.459,3.259,3.259l0,0c0,1.8-1.459,3.259-3.259,3.259h-78.63
	c-1.8,0-3.259-1.459-3.259-3.259l0,0C213.425,115.593,214.884,114.134,216.684,114.134z"/>
<circle style="fill:#D9DADA;" cx="256.003" cy="397.714" r="13.891"/>
<path style="fill:#00A085;" d="M186.095,275.056h25.625v89.512h-25.625V275.056z M300.33,180.83h25.625v183.738H300.33V180.83z
	 M262.268,225.009h25.625v139.558h-25.625V225.009z M224.207,294.763h25.625v69.805h-25.625V294.763z"/>
<path style="fill:#5B5B5B;" d="M197.027,243.965c5.516,0,9.979,4.463,9.979,9.979c0,0.651-0.05,1.304-0.2,1.955l17.401,9.929
	c1.805-1.905,4.363-3.109,7.221-3.109c1.354,0,2.658,0.251,3.862,0.753l26.828-57.268c-2.457-1.805-4.062-4.713-4.062-8.024
	c0-5.516,4.463-9.979,9.979-9.979c1.905,0,3.661,0.501,5.165,1.404l32.144-26.478c-1.154-1.605-1.805-3.611-1.805-5.767
	c0-5.516,4.463-9.979,9.979-9.979s9.979,4.463,9.979,9.979c0,5.516-4.463,9.979-9.979,9.979c-2.005,0-3.862-0.601-5.416-1.605
	l-31.994,26.478c1.204,1.655,1.955,3.711,1.955,5.917c0,5.516-4.463,9.979-9.979,9.979c-0.853,0-1.705-0.1-2.508-0.301
	l-27.079,57.769c1.805,1.805,2.959,4.313,2.959,7.071c0,5.516-4.463,9.979-9.979,9.979s-9.979-4.463-9.979-9.979
	c0-1.304,0.251-2.558,0.702-3.661l-16.849-9.578c-1.805,2.708-4.864,4.463-8.324,4.463c-5.516,0-9.979-4.463-9.979-9.979
	s4.463-9.979,9.979-9.979v0.051H197.027z M313.418,151.394c3.309,0,6.017,2.708,6.017,6.017c0,3.309-2.708,6.017-6.017,6.017
	s-6.017-2.708-6.017-6.017C307.4,154.102,310.108,151.394,313.418,151.394z M267.985,192.163c3.309,0,6.017,2.708,6.017,6.017
	c0,3.309-2.708,6.017-6.017,6.017c-3.309,0-6.017-2.708-6.017-6.017C261.968,194.871,264.676,192.163,267.985,192.163z
	 M231.428,266.681c3.309,0,6.017,2.708,6.017,6.017c0,3.309-2.708,6.017-6.017,6.017c-3.309,0-6.017-2.708-6.017-6.017
	C225.411,269.389,228.119,266.681,231.428,266.681z M197.027,247.927c3.309,0,6.017,2.708,6.017,6.017
	c0,3.309-2.708,6.017-6.017,6.017c-3.309,0-6.017-2.708-6.017-6.017C191.01,250.635,193.717,247.927,197.027,247.927z"/>
</svg>